<svg xmlns="http://www.w3.org/2000/svg" width="648" viewBox="0 0 648 465" height="465" version="1.0"><path fill="#002E6D" d="M 97.734375 343.992188 C 99.453125 345.25 100.964844 346.722656 102.265625 348.40625 C 103.566406 350.09375 104.605469 351.929688 105.382812 353.914062 C 106.222656 356.117188 106.855469 358.378906 107.28125 360.699219 C 107.710938 363.019531 107.921875 365.359375 107.921875 367.71875 C 107.921875 370.078125 107.710938 372.417969 107.28125 374.738281 C 106.855469 377.058594 106.222656 379.320312 105.382812 381.523438 C 104.609375 383.496094 103.570312 385.316406 102.269531 386.984375 C 100.96875 388.65625 99.457031 390.109375 97.734375 391.339844 C 94.316406 393.757812 90.109375 394.96875 85.113281 394.972656 L 65.203125 394.972656 C 64.886719 394.980469 64.585938 394.925781 64.296875 394.8125 C 64.003906 394.695312 63.746094 394.527344 63.527344 394.304688 C 63.304688 394.085938 63.136719 393.828125 63.019531 393.535156 C 62.90625 393.246094 62.851562 392.945312 62.859375 392.628906 L 62.859375 342.640625 C 62.851562 342.324219 62.90625 342.023438 63.019531 341.730469 C 63.136719 341.441406 63.304688 341.183594 63.527344 340.964844 C 63.746094 340.742188 64.003906 340.574219 64.296875 340.457031 C 64.585938 340.339844 64.886719 340.289062 65.203125 340.296875 L 85.121094 340.296875 C 90.121094 340.289062 94.328125 341.519531 97.734375 343.992188 Z M 98.316406 384.0625 C 101.386719 379.855469 102.925781 374.375 102.929688 367.621094 C 102.980469 363.6875 102.328125 359.871094 100.972656 356.179688 C 100.371094 354.542969 99.550781 353.027344 98.507812 351.632812 C 97.464844 350.238281 96.242188 349.019531 94.847656 347.980469 C 92.042969 345.921875 88.535156 344.890625 84.328125 344.894531 L 67.773438 344.894531 L 67.773438 390.351562 L 84.335938 390.351562 C 90.585938 390.351562 95.246094 388.253906 98.316406 384.0625 Z M 98.316406 384.0625"/><path fill="#002E6D" d="M 194.34375 358.367188 C 196.609375 361.203125 197.742188 364.964844 197.746094 369.652344 L 197.746094 392.589844 C 197.769531 393.253906 197.535156 393.8125 197.042969 394.265625 C 196.710938 394.601562 196.3125 394.820312 195.84375 394.914062 C 195.378906 395.007812 194.925781 394.960938 194.488281 394.777344 C 194.050781 394.589844 193.703125 394.300781 193.441406 393.898438 C 193.183594 393.5 193.058594 393.0625 193.070312 392.589844 L 193.070312 369.886719 C 193.070312 366.503906 192.222656 363.757812 190.53125 361.648438 C 188.839844 359.535156 186.214844 358.480469 182.65625 358.484375 C 181.5625 358.492188 180.484375 358.625 179.421875 358.886719 C 178.359375 359.144531 177.339844 359.523438 176.367188 360.019531 C 175.394531 360.519531 174.492188 361.121094 173.65625 361.832031 C 172.824219 362.542969 172.085938 363.335938 171.4375 364.21875 C 170.195312 365.902344 169.570312 367.792969 169.566406 369.886719 L 169.566406 392.589844 C 169.574219 392.902344 169.523438 393.203125 169.40625 393.496094 C 169.289062 393.785156 169.121094 394.042969 168.902344 394.261719 C 168.679688 394.484375 168.421875 394.652344 168.132812 394.769531 C 167.839844 394.886719 167.539062 394.9375 167.226562 394.929688 C 166.910156 394.941406 166.609375 394.886719 166.316406 394.773438 C 166.023438 394.65625 165.765625 394.488281 165.546875 394.265625 C 165.324219 394.042969 165.152344 393.789062 165.039062 393.496094 C 164.921875 393.203125 164.867188 392.902344 164.875 392.589844 L 164.875 357.621094 C 164.867188 357.308594 164.921875 357.003906 165.039062 356.714844 C 165.152344 356.421875 165.324219 356.164062 165.546875 355.945312 C 165.765625 355.722656 166.023438 355.554688 166.316406 355.4375 C 166.609375 355.324219 166.910156 355.269531 167.226562 355.28125 C 167.539062 355.273438 167.839844 355.324219 168.132812 355.441406 C 168.421875 355.558594 168.679688 355.726562 168.902344 355.945312 C 169.121094 356.167969 169.289062 356.425781 169.40625 356.714844 C 169.523438 357.007812 169.574219 357.308594 169.566406 357.621094 L 169.566406 361.921875 C 171.105469 359.53125 173.121094 357.664062 175.617188 356.3125 C 178.117188 354.851562 180.808594 354.113281 183.703125 354.089844 C 188.539062 354.101562 192.085938 355.527344 194.34375 358.367188 Z M 194.34375 358.367188"/><path fill="#002E6D" d="M 209.769531 348.367188 C 209.136719 347.789062 208.851562 347.074219 208.90625 346.222656 L 208.90625 345.4375 C 208.886719 345.027344 208.953125 344.636719 209.113281 344.257812 C 209.269531 343.882812 209.503906 343.558594 209.8125 343.289062 C 210.542969 342.746094 211.363281 342.496094 212.273438 342.546875 C 214.378906 342.546875 215.402344 343.515625 215.402344 345.4375 L 215.402344 346.222656 C 215.457031 347.0625 215.183594 347.777344 214.582031 348.367188 C 213.878906 348.925781 213.082031 349.171875 212.191406 349.109375 C 211.289062 349.167969 210.484375 348.917969 209.769531 348.367188 Z M 213.871094 394.292969 C 213.535156 394.632812 213.132812 394.851562 212.664062 394.949219 C 212.191406 395.042969 211.738281 395 211.292969 394.816406 C 210.851562 394.628906 210.496094 394.335938 210.234375 393.9375 C 209.96875 393.535156 209.839844 393.097656 209.847656 392.617188 L 209.847656 356.691406 C 209.832031 356.367188 209.875 356.054688 209.988281 355.753906 C 210.097656 355.449219 210.265625 355.179688 210.488281 354.945312 C 210.710938 354.710938 210.96875 354.53125 211.265625 354.402344 C 211.5625 354.277344 211.871094 354.210938 212.191406 354.210938 C 212.515625 354.210938 212.824219 354.277344 213.121094 354.402344 C 213.417969 354.53125 213.675781 354.710938 213.898438 354.945312 C 214.121094 355.179688 214.285156 355.449219 214.398438 355.753906 C 214.507812 356.054688 214.554688 356.367188 214.539062 356.691406 L 214.539062 392.589844 C 214.566406 393.253906 214.34375 393.820312 213.871094 394.292969 Z M 213.871094 394.292969"/><path fill="#002E6D" d="M 259.785156 374.300781 C 259.332031 374.75 258.785156 374.96875 258.148438 374.960938 L 228.597656 374.960938 C 228.542969 377.921875 229.183594 380.726562 230.511719 383.375 C 231.769531 385.851562 233.59375 387.804688 235.980469 389.230469 C 238.578125 390.746094 241.382812 391.460938 244.394531 391.382812 C 246.757812 391.40625 248.988281 390.871094 251.089844 389.785156 C 252.980469 388.820312 254.570312 387.492188 255.855469 385.800781 C 256.320312 385.371094 256.867188 385.140625 257.496094 385.101562 C 258.054688 385.109375 258.523438 385.320312 258.898438 385.730469 C 259.3125 386.109375 259.519531 386.574219 259.523438 387.132812 C 259.496094 387.789062 259.238281 388.335938 258.746094 388.773438 C 256.988281 390.878906 254.886719 392.546875 252.433594 393.773438 C 249.925781 395.078125 247.257812 395.726562 244.429688 395.722656 C 240.675781 395.800781 237.144531 394.949219 233.839844 393.164062 C 232.324219 392.324219 230.953125 391.292969 229.730469 390.0625 C 228.507812 388.832031 227.484375 387.457031 226.652344 385.933594 C 224.851562 382.582031 223.992188 379.003906 224.074219 375.199219 C 223.980469 371.25 224.824219 367.511719 226.605469 363.980469 C 228.167969 360.898438 230.421875 358.453125 233.363281 356.640625 C 236.125 354.949219 239.121094 354.101562 242.351562 354.101562 C 245.464844 354.089844 248.394531 354.816406 251.136719 356.289062 C 253.957031 357.804688 256.179688 359.941406 257.8125 362.691406 C 259.628906 365.78125 260.519531 369.113281 260.484375 372.695312 C 260.496094 373.339844 260.261719 373.875 259.785156 374.300781 Z M 233.945312 361.738281 C 231.367188 363.824219 229.714844 366.816406 228.988281 370.71875 L 255.632812 370.71875 L 255.632812 370.152344 C 255.417969 367.890625 254.636719 365.84375 253.289062 364.015625 C 251.996094 362.269531 250.359375 360.941406 248.382812 360.035156 C 246.46875 359.125 244.449219 358.671875 242.332031 358.667969 C 240.796875 358.671875 239.308594 358.9375 237.871094 359.464844 C 236.429688 359.992188 235.121094 360.75 233.945312 361.738281 Z M 233.945312 361.738281"/><path fill="#002E6D" d="M 274.640625 394.292969 C 274.414062 394.503906 274.152344 394.671875 273.863281 394.785156 C 273.570312 394.898438 273.269531 394.957031 272.957031 394.957031 C 272.644531 394.957031 272.34375 394.898438 272.054688 394.785156 C 271.761719 394.671875 271.503906 394.503906 271.273438 394.292969 C 270.816406 393.828125 270.597656 393.269531 270.617188 392.617188 L 270.617188 339.503906 C 270.597656 338.851562 270.816406 338.289062 271.273438 337.820312 C 271.503906 337.609375 271.761719 337.445312 272.054688 337.332031 C 272.34375 337.21875 272.644531 337.160156 272.957031 337.160156 C 273.269531 337.160156 273.570312 337.21875 273.863281 337.332031 C 274.152344 337.445312 274.410156 337.609375 274.640625 337.820312 C 275.097656 338.289062 275.316406 338.851562 275.300781 339.503906 L 275.300781 392.589844 C 275.324219 393.25 275.105469 393.820312 274.640625 394.292969 Z M 274.640625 394.292969"/><path fill="#002E6D" d="M 343.296875 391.054688 C 343.738281 391.511719 343.957031 392.058594 343.957031 392.695312 C 343.980469 393.339844 343.761719 393.886719 343.296875 394.335938 C 342.820312 394.769531 342.257812 394.980469 341.613281 394.957031 L 312.949219 394.957031 C 312.289062 394.972656 311.730469 394.738281 311.273438 394.257812 C 310.796875 393.800781 310.5625 393.242188 310.574219 392.582031 L 310.574219 342.589844 C 310.566406 342.277344 310.621094 341.972656 310.738281 341.683594 C 310.855469 341.390625 311.023438 341.136719 311.246094 340.914062 C 311.46875 340.691406 311.722656 340.523438 312.015625 340.410156 C 312.308594 340.292969 312.609375 340.238281 312.921875 340.246094 L 341.585938 340.246094 C 341.898438 340.238281 342.203125 340.289062 342.496094 340.402344 C 342.785156 340.519531 343.042969 340.6875 343.265625 340.910156 C 343.488281 341.132812 343.65625 341.390625 343.769531 341.679688 C 343.886719 341.972656 343.9375 342.277344 343.925781 342.589844 C 343.953125 343.234375 343.734375 343.78125 343.269531 344.230469 C 342.792969 344.671875 342.234375 344.882812 341.585938 344.863281 L 315.523438 344.863281 L 315.523438 364.492188 L 338.101562 364.492188 C 338.414062 364.484375 338.71875 364.535156 339.011719 364.648438 C 339.300781 364.765625 339.558594 364.933594 339.78125 365.15625 C 340.003906 365.378906 340.171875 365.632812 340.285156 365.925781 C 340.402344 366.21875 340.453125 366.523438 340.441406 366.835938 C 340.464844 367.480469 340.242188 368.027344 339.777344 368.476562 C 339.304688 368.914062 338.746094 369.121094 338.101562 369.101562 L 315.523438 369.101562 L 315.523438 390.34375 L 341.613281 390.34375 C 342.28125 390.328125 342.84375 390.5625 343.296875 391.054688 Z M 343.296875 391.054688"/><path fill="#002E6D" d="M 350.933594 386.914062 C 350.929688 386.578125 351.019531 386.269531 351.203125 385.984375 C 351.386719 385.699219 351.632812 385.488281 351.941406 385.351562 C 352.289062 385.015625 352.707031 384.859375 353.191406 384.882812 C 353.875 384.894531 354.445312 385.152344 354.90625 385.660156 C 355.601562 386.632812 356.40625 387.503906 357.3125 388.277344 C 358.222656 389.050781 359.210938 389.703125 360.28125 390.234375 C 361.351562 390.765625 362.46875 391.160156 363.632812 391.417969 C 364.796875 391.671875 365.976562 391.785156 367.171875 391.753906 C 369.519531 391.8125 371.695312 391.230469 373.699219 390 C 374.136719 389.738281 374.535156 389.421875 374.886719 389.050781 C 375.242188 388.683594 375.542969 388.273438 375.785156 387.820312 C 376.027344 387.371094 376.207031 386.898438 376.324219 386.398438 C 376.441406 385.898438 376.488281 385.394531 376.46875 384.882812 C 376.492188 384.394531 376.453125 383.914062 376.347656 383.4375 C 376.242188 382.960938 376.078125 382.507812 375.851562 382.078125 C 375.625 381.644531 375.347656 381.25 375.015625 380.894531 C 374.683594 380.539062 374.308594 380.230469 373.894531 379.976562 C 371.640625 378.671875 369.246094 377.738281 366.707031 377.171875 C 362.378906 376.078125 358.996094 374.65625 356.554688 372.914062 C 354.117188 371.171875 352.890625 368.601562 352.882812 365.203125 C 352.855469 363.09375 353.453125 361.179688 354.675781 359.460938 C 355.949219 357.695312 357.585938 356.382812 359.585938 355.519531 C 361.820312 354.539062 364.15625 354.070312 366.59375 354.117188 C 368.929688 354.128906 371.179688 354.558594 373.355469 355.40625 C 375.648438 356.273438 377.589844 357.640625 379.175781 359.507812 C 379.671875 359.90625 379.90625 360.425781 379.875 361.066406 C 379.871094 361.734375 379.613281 362.28125 379.097656 362.707031 C 378.6875 363.039062 378.222656 363.195312 377.695312 363.175781 C 377.136719 363.171875 376.667969 362.964844 376.292969 362.550781 C 375.050781 361.144531 373.566406 360.078125 371.839844 359.347656 C 370.042969 358.585938 368.167969 358.214844 366.21875 358.230469 C 363.9375 358.164062 361.835938 358.738281 359.90625 359.957031 C 359.480469 360.234375 359.097656 360.558594 358.757812 360.9375 C 358.417969 361.3125 358.132812 361.726562 357.902344 362.179688 C 357.675781 362.632812 357.507812 363.109375 357.402344 363.605469 C 357.300781 364.101562 357.261719 364.605469 357.292969 365.109375 C 357.3125 366.097656 357.578125 367.019531 358.085938 367.867188 C 358.59375 368.714844 359.277344 369.382812 360.136719 369.871094 C 362.640625 371.238281 365.285156 372.226562 368.066406 372.835938 C 370.378906 373.382812 372.617188 374.136719 374.785156 375.109375 C 376.527344 375.90625 377.972656 377.074219 379.117188 378.613281 C 380.351562 380.429688 380.914062 382.4375 380.800781 384.628906 C 380.824219 385.417969 380.75 386.199219 380.578125 386.96875 C 380.40625 387.738281 380.144531 388.476562 379.789062 389.183594 C 379.433594 389.890625 379 390.539062 378.484375 391.136719 C 377.96875 391.734375 377.386719 392.261719 376.742188 392.714844 C 374.035156 394.71875 370.675781 395.71875 366.664062 395.714844 C 360.304688 395.714844 355.253906 393.347656 351.515625 388.613281 C 351.167969 388.101562 350.972656 387.535156 350.933594 386.914062 Z M 350.933594 386.914062"/><path fill="#002E6D" d="M 424.550781 355.597656 C 425.007812 356.078125 425.226562 356.652344 425.210938 357.3125 L 425.210938 408.238281 C 425.203125 408.710938 425.066406 409.144531 424.800781 409.535156 C 424.535156 409.925781 424.183594 410.214844 423.75 410.394531 C 423.3125 410.578125 422.859375 410.625 422.394531 410.535156 C 421.929688 410.449219 421.527344 410.242188 421.1875 409.914062 C 420.726562 409.449219 420.507812 408.890625 420.527344 408.238281 L 420.527344 387.148438 C 419.109375 389.679688 417.171875 391.707031 414.707031 393.242188 C 412.109375 394.933594 409.257812 395.765625 406.152344 395.738281 C 404.5 395.757812 402.878906 395.535156 401.289062 395.078125 C 399.699219 394.621094 398.210938 393.941406 396.820312 393.042969 C 393.921875 391.167969 391.714844 388.679688 390.195312 385.578125 C 389.398438 383.914062 388.792969 382.183594 388.382812 380.382812 C 387.976562 378.582031 387.769531 376.761719 387.769531 374.917969 C 387.769531 373.070312 387.976562 371.25 388.382812 369.449219 C 388.792969 367.648438 389.398438 365.917969 390.195312 364.253906 C 391.714844 361.175781 393.914062 358.699219 396.792969 356.828125 C 398.171875 355.9375 399.648438 355.261719 401.222656 354.800781 C 402.800781 354.34375 404.40625 354.121094 406.050781 354.136719 C 409.101562 354.117188 411.9375 354.886719 414.5625 356.445312 C 417.089844 357.886719 419.070312 359.878906 420.5 362.417969 L 420.5 357.339844 C 420.480469 356.675781 420.699219 356.105469 421.160156 355.625 C 421.378906 355.398438 421.636719 355.222656 421.929688 355.101562 C 422.21875 354.976562 422.523438 354.917969 422.839844 354.917969 C 423.15625 354.917969 423.460938 354.976562 423.753906 355.101562 C 424.046875 355.222656 424.300781 355.398438 424.523438 355.625 Z M 413.921875 389.25 C 416.171875 387.765625 417.863281 385.796875 419 383.355469 C 420.269531 380.671875 420.886719 377.847656 420.84375 374.878906 C 420.863281 371.945312 420.230469 369.160156 418.941406 366.527344 C 417.792969 364.09375 416.101562 362.128906 413.867188 360.628906 C 412.777344 359.929688 411.613281 359.398438 410.371094 359.03125 C 409.128906 358.667969 407.863281 358.484375 406.566406 358.484375 C 405.273438 358.484375 404.003906 358.667969 402.765625 359.03125 C 401.523438 359.398438 400.355469 359.929688 399.269531 360.628906 C 397.03125 362.125 395.339844 364.089844 394.191406 366.527344 C 393.585938 367.84375 393.125 369.210938 392.816406 370.625 C 392.503906 372.039062 392.347656 373.472656 392.347656 374.921875 C 392.347656 376.371094 392.503906 377.804688 392.816406 379.222656 C 393.125 380.636719 393.585938 382.003906 394.191406 383.320312 C 395.335938 385.757812 397.03125 387.722656 399.269531 389.214844 C 401.480469 390.6875 403.914062 391.40625 406.566406 391.367188 C 409.222656 391.40625 411.667969 390.703125 413.894531 389.257812 Z M 413.921875 389.25"/><path fill="#002E6D" d="M 468.960938 355.945312 C 469.421875 356.410156 469.644531 356.96875 469.621094 357.621094 L 469.621094 379.652344 C 469.621094 384.757812 468.191406 388.671875 465.332031 391.402344 C 462.46875 394.132812 458.511719 395.5 453.460938 395.503906 C 448.464844 395.503906 444.542969 394.136719 441.703125 391.402344 C 438.859375 388.667969 437.445312 384.75 437.453125 379.652344 L 437.453125 357.621094 C 437.453125 357.3125 437.511719 357.011719 437.632812 356.726562 C 437.75 356.4375 437.917969 356.1875 438.140625 355.964844 C 438.359375 355.746094 438.613281 355.578125 438.898438 355.457031 C 439.1875 355.339844 439.484375 355.28125 439.796875 355.28125 C 440.105469 355.28125 440.40625 355.339844 440.691406 355.457031 C 440.976562 355.578125 441.230469 355.746094 441.449219 355.964844 C 441.671875 356.1875 441.839844 356.4375 441.957031 356.726562 C 442.078125 357.011719 442.136719 357.3125 442.136719 357.621094 L 442.136719 379.652344 C 442.136719 383.390625 443.125 386.242188 445.101562 388.207031 C 447.078125 390.167969 449.867188 391.144531 453.460938 391.128906 C 457.105469 391.128906 459.933594 390.15625 461.9375 388.207031 C 463.941406 386.257812 464.941406 383.40625 464.9375 379.652344 L 464.9375 357.621094 C 464.945312 357.148438 465.082031 356.714844 465.347656 356.324219 C 465.613281 355.933594 465.964844 355.648438 466.402344 355.464844 C 466.839844 355.28125 467.289062 355.234375 467.753906 355.324219 C 468.21875 355.410156 468.621094 355.617188 468.960938 355.945312 Z M 468.960938 355.945312"/><path fill="#002E6D" d="M 481.652344 348.367188 C 481.023438 347.789062 480.734375 347.074219 480.792969 346.222656 L 480.792969 345.4375 C 480.765625 345.027344 480.832031 344.636719 480.992188 344.257812 C 481.148438 343.882812 481.382812 343.558594 481.6875 343.289062 C 482.421875 342.746094 483.246094 342.5 484.15625 342.546875 C 486.261719 342.546875 487.277344 343.515625 487.277344 345.4375 L 487.277344 346.222656 C 487.335938 347.0625 487.0625 347.777344 486.457031 348.367188 C 485.757812 348.925781 484.964844 349.171875 484.074219 349.109375 C 483.171875 349.167969 482.367188 348.921875 481.652344 348.367188 Z M 485.753906 394.292969 C 485.296875 394.773438 484.734375 395.007812 484.074219 394.992188 C 483.410156 395.007812 482.851562 394.773438 482.398438 394.292969 C 481.921875 393.835938 481.6875 393.277344 481.695312 392.617188 L 481.695312 356.691406 C 481.695312 356.378906 481.753906 356.082031 481.875 355.792969 C 481.992188 355.507812 482.160156 355.253906 482.382812 355.035156 C 482.601562 354.8125 482.855469 354.644531 483.140625 354.527344 C 483.429688 354.40625 483.726562 354.347656 484.039062 354.347656 C 484.347656 354.347656 484.648438 354.40625 484.933594 354.527344 C 485.21875 354.644531 485.472656 354.8125 485.691406 355.035156 C 485.914062 355.253906 486.082031 355.507812 486.199219 355.792969 C 486.320312 356.082031 486.378906 356.378906 486.378906 356.691406 L 486.378906 392.589844 C 486.414062 393.246094 486.207031 393.8125 485.753906 394.292969 Z M 485.753906 394.292969"/><path fill="#002E6D" d="M 530.234375 354.8125 C 530.710938 355.15625 530.941406 355.625 530.9375 356.214844 C 530.9375 356.679688 530.835938 357.121094 530.621094 357.539062 L 515.316406 393.464844 C 515.101562 393.890625 514.804688 394.246094 514.417969 394.523438 C 514.0625 394.804688 513.65625 394.945312 513.203125 394.949219 C 512.703125 395.011719 512.234375 394.910156 511.800781 394.644531 C 511.355469 394.355469 511.042969 393.964844 510.863281 393.464844 L 495.480469 357.53125 C 495.464844 357.367188 495.425781 357.210938 495.359375 357.0625 C 495.28125 356.859375 495.242188 356.652344 495.242188 356.4375 C 495.230469 355.820312 495.4375 355.285156 495.867188 354.839844 C 496.367188 354.351562 496.964844 354.128906 497.660156 354.171875 C 498.136719 354.171875 498.566406 354.3125 498.949219 354.601562 C 499.355469 354.894531 499.652344 355.273438 499.847656 355.734375 L 513.128906 387.371094 L 526.449219 355.734375 C 526.648438 355.277344 526.945312 354.898438 527.347656 354.601562 C 527.769531 354.296875 528.234375 354.179688 528.75 354.25 C 529.3125 354.261719 529.804688 354.449219 530.234375 354.8125 Z M 530.234375 354.8125"/><path fill="#002E6D" d="M 572.5625 374.300781 C 572.109375 374.75 571.566406 374.96875 570.929688 374.960938 L 541.40625 374.960938 C 541.347656 377.925781 541.988281 380.726562 543.320312 383.375 C 544.578125 385.851562 546.402344 387.804688 548.789062 389.230469 C 551.386719 390.746094 554.191406 391.460938 557.203125 391.382812 C 559.570312 391.421875 561.808594 390.898438 563.917969 389.820312 C 565.808594 388.855469 567.398438 387.527344 568.679688 385.835938 C 569.144531 385.40625 569.695312 385.171875 570.328125 385.136719 C 570.886719 385.144531 571.351562 385.351562 571.730469 385.765625 C 572.140625 386.144531 572.351562 386.609375 572.351562 387.167969 C 572.328125 387.824219 572.066406 388.371094 571.574219 388.808594 C 569.820312 390.914062 567.714844 392.582031 565.265625 393.808594 C 562.753906 395.113281 560.085938 395.761719 557.257812 395.757812 C 553.492188 395.835938 549.949219 394.976562 546.636719 393.183594 C 545.121094 392.34375 543.75 391.3125 542.53125 390.082031 C 541.308594 388.851562 540.285156 387.476562 539.457031 385.957031 C 537.652344 382.605469 536.789062 379.027344 536.867188 375.222656 C 536.777344 371.269531 537.625 367.53125 539.40625 364.003906 C 540.96875 360.917969 543.222656 358.472656 546.164062 356.660156 C 548.921875 354.96875 551.917969 354.125 555.15625 354.125 C 558.269531 354.109375 561.195312 354.839844 563.941406 356.3125 C 566.757812 357.828125 568.984375 359.960938 570.613281 362.710938 C 572.425781 365.800781 573.308594 369.132812 573.273438 372.710938 C 573.277344 373.347656 573.042969 373.878906 572.5625 374.300781 Z M 546.753906 361.738281 C 544.175781 363.824219 542.523438 366.816406 541.796875 370.71875 L 568.441406 370.71875 L 568.441406 370.152344 C 568.226562 367.890625 567.445312 365.84375 566.097656 364.015625 C 564.804688 362.269531 563.167969 360.941406 561.191406 360.035156 C 559.277344 359.125 557.257812 358.671875 555.140625 358.667969 C 553.605469 358.671875 552.117188 358.9375 550.679688 359.464844 C 549.238281 359.992188 547.929688 360.75 546.753906 361.738281 Z M 546.753906 361.738281"/><path fill="#002E6D" d="M 587.449219 394.292969 C 587.113281 394.632812 586.710938 394.851562 586.238281 394.949219 C 585.769531 395.042969 585.3125 395 584.871094 394.816406 C 584.425781 394.628906 584.074219 394.335938 583.8125 393.9375 C 583.546875 393.535156 583.417969 393.097656 583.425781 392.617188 L 583.425781 339.503906 C 583.433594 339.03125 583.570312 338.601562 583.835938 338.210938 C 584.101562 337.820312 584.453125 337.535156 584.886719 337.351562 C 585.324219 337.167969 585.773438 337.121094 586.238281 337.207031 C 586.703125 337.292969 587.105469 337.496094 587.449219 337.820312 C 587.914062 338.289062 588.132812 338.847656 588.117188 339.503906 L 588.117188 392.589844 C 588.140625 393.253906 587.921875 393.820312 587.449219 394.292969 Z M 587.449219 394.292969"/><path fill="#002E6D" d="M 115.929688 395.105469 C 115.433594 394.753906 115.1875 394.277344 115.191406 393.667969 C 115.191406 393.191406 115.300781 392.738281 115.523438 392.316406 L 131.566406 355.636719 C 131.789062 355.203125 132.101562 354.839844 132.503906 354.558594 C 132.882812 354.277344 133.308594 354.128906 133.78125 354.125 C 134.308594 354.058594 134.796875 354.164062 135.253906 354.4375 C 135.714844 354.730469 136.042969 355.128906 136.234375 355.636719 L 152.359375 392.316406 C 152.371094 392.480469 152.414062 392.640625 152.488281 392.792969 C 152.566406 392.996094 152.605469 393.210938 152.605469 393.429688 C 152.617188 394.066406 152.398438 394.613281 151.945312 395.0625 C 151.421875 395.570312 150.796875 395.804688 150.066406 395.765625 C 149.570312 395.769531 149.117188 395.625 148.714844 395.328125 C 148.296875 395.027344 147.984375 394.644531 147.777344 394.171875 L 133.859375 361.855469 L 119.835938 394.144531 C 119.628906 394.617188 119.316406 395.003906 118.894531 395.300781 C 118.472656 395.601562 118.007812 395.722656 117.492188 395.660156 C 116.90625 395.65625 116.386719 395.472656 115.929688 395.105469 Z M 115.929688 395.105469"/><path fill="#002E6D" d="M 200.796875 295.597656 L 378.886719 169.757812 L 326.152344 78.476562 Z M 372.429688 169.394531 L 213.4375 281.75 L 326.152344 86.511719 L 373.535156 168.585938 Z M 372.429688 169.394531"/><path fill="#002E6D" d="M 453.425781 299.1875 L 230.867188 299.1875 L 305.617188 248.207031 L 386.765625 248.207031 L 386.765625 243.25 L 312.882812 243.25 L 386.050781 193.34375 L 405.382812 226.824219 L 409.675781 224.347656 L 387.671875 186.242188 L 214.832031 304.132812 L 456.132812 303.878906 Z M 453.425781 299.1875"/></svg>