<svg xmlns="http://www.w3.org/2000/svg" width="810" viewBox="0 0 810 266.25" height="266.25" version="1.0"><path fill="#002E6D" d="M 362.90625 100.183594 C 365.191406 94.371094 366.289062 88.339844 366.195312 82.09375 C 366.269531 75.933594 365.167969 69.992188 362.898438 64.261719 C 361.902344 61.730469 360.574219 59.386719 358.914062 57.226562 C 357.253906 55.070312 355.328125 53.1875 353.132812 51.578125 C 348.84375 48.460938 343.414062 46.875 337.058594 46.875 L 310.351562 46.875 C 310.121094 46.863281 309.898438 46.898438 309.683594 46.980469 C 309.46875 47.066406 309.28125 47.1875 309.117188 47.351562 C 308.953125 47.515625 308.832031 47.707031 308.75 47.921875 C 308.667969 48.136719 308.632812 48.359375 308.644531 48.589844 L 308.644531 115.601562 C 308.632812 115.832031 308.667969 116.054688 308.75 116.269531 C 308.832031 116.484375 308.953125 116.671875 309.117188 116.835938 C 309.28125 117 309.46875 117.121094 309.683594 117.203125 C 309.898438 117.285156 310.121094 117.320312 310.351562 117.308594 L 337.058594 117.308594 C 343.429688 117.308594 348.835938 115.757812 353.140625 112.703125 C 355.332031 111.128906 357.257812 109.273438 358.921875 107.144531 C 360.582031 105.015625 361.910156 102.695312 362.90625 100.183594 Z M 355.90625 104.976562 C 351.523438 110.960938 344.824219 113.992188 336.015625 113.992188 L 312.375 113.992188 L 312.375 50.214844 L 336.015625 50.214844 C 341.949219 50.214844 346.96875 51.699219 350.945312 54.632812 C 352.929688 56.109375 354.660156 57.835938 356.140625 59.816406 C 357.621094 61.796875 358.789062 63.945312 359.644531 66.265625 C 361.523438 71.382812 362.429688 76.667969 362.363281 82.117188 C 362.363281 91.453125 360.21875 99.148438 355.925781 104.996094 Z M 355.90625 104.976562"/><path fill="#002E6D" d="M 486.609375 84.832031 C 486.609375 78.914062 485.179688 74.109375 482.363281 70.597656 C 479.546875 67.085938 475.210938 65.429688 469.191406 65.429688 C 465.566406 65.464844 462.1875 66.398438 459.058594 68.230469 C 455.925781 69.914062 453.390625 72.246094 451.453125 75.230469 L 448.8125 79.449219 L 448.8125 68.726562 C 448.828125 68.488281 448.796875 68.257812 448.71875 68.035156 C 448.636719 67.8125 448.515625 67.613281 448.355469 67.441406 C 448.191406 67.265625 448 67.132812 447.785156 67.039062 C 447.566406 66.945312 447.339844 66.898438 447.101562 66.898438 C 446.863281 66.898438 446.636719 66.945312 446.417969 67.039062 C 446.203125 67.132812 446.011719 67.265625 445.847656 67.441406 C 445.6875 67.613281 445.566406 67.8125 445.484375 68.035156 C 445.40625 68.257812 445.375 68.488281 445.390625 68.726562 L 445.390625 115.636719 C 445.375 115.871094 445.40625 116.101562 445.484375 116.328125 C 445.566406 116.550781 445.6875 116.746094 445.847656 116.921875 C 446.011719 117.09375 446.203125 117.226562 446.417969 117.320312 C 446.636719 117.417969 446.863281 117.464844 447.101562 117.464844 C 447.339844 117.464844 447.566406 117.417969 447.785156 117.320312 C 448 117.226562 448.191406 117.09375 448.355469 116.921875 C 448.515625 116.746094 448.636719 116.550781 448.71875 116.328125 C 448.796875 116.101562 448.828125 115.871094 448.8125 115.636719 L 448.8125 85.171875 C 448.816406 83.65625 449.054688 82.175781 449.527344 80.738281 C 450.003906 79.296875 450.691406 77.96875 451.589844 76.746094 C 452.523438 75.46875 453.59375 74.316406 454.796875 73.289062 C 456.003906 72.261719 457.3125 71.390625 458.722656 70.667969 C 460.132812 69.949219 461.605469 69.402344 463.144531 69.027344 C 464.683594 68.652344 466.242188 68.460938 467.824219 68.453125 C 473.011719 68.453125 476.929688 70.0625 479.464844 73.230469 C 482.003906 76.398438 483.183594 80.320312 483.183594 85.171875 L 483.183594 115.644531 C 483.171875 115.871094 483.207031 116.09375 483.289062 116.304688 C 483.371094 116.519531 483.492188 116.707031 483.65625 116.867188 C 483.816406 117.03125 484.003906 117.152344 484.214844 117.238281 C 484.429688 117.320312 484.652344 117.355469 484.878906 117.34375 C 485.351562 117.351562 485.753906 117.1875 486.085938 116.851562 C 486.441406 116.523438 486.609375 116.117188 486.585938 115.636719 Z M 486.609375 84.832031"/><path fill="#002E6D" d="M 507.402344 117.34375 C 507.632812 117.359375 507.855469 117.324219 508.070312 117.242188 C 508.289062 117.160156 508.476562 117.039062 508.640625 116.875 C 508.804688 116.710938 508.929688 116.523438 509.011719 116.304688 C 509.09375 116.089844 509.128906 115.867188 509.117188 115.636719 L 509.117188 67.460938 C 509.132812 67.226562 509.097656 67.003906 509.015625 66.785156 C 508.933594 66.570312 508.808594 66.378906 508.644531 66.214844 C 508.480469 66.050781 508.289062 65.929688 508.074219 65.847656 C 507.855469 65.765625 507.632812 65.730469 507.402344 65.742188 C 507.171875 65.730469 506.949219 65.769531 506.734375 65.851562 C 506.515625 65.933594 506.328125 66.058594 506.164062 66.222656 C 506.003906 66.382812 505.878906 66.574219 505.796875 66.789062 C 505.714844 67.003906 505.679688 67.230469 505.691406 67.460938 L 505.691406 115.621094 C 505.679688 115.851562 505.710938 116.078125 505.792969 116.292969 C 505.875 116.511719 505.996094 116.703125 506.160156 116.867188 C 506.324219 117.03125 506.511719 117.15625 506.730469 117.238281 C 506.945312 117.324219 507.171875 117.359375 507.402344 117.34375 Z M 507.402344 117.34375"/><path fill="#002E6D" d="M 510.984375 52.378906 C 510.984375 50.191406 509.910156 49.21875 507.515625 49.21875 C 506.460938 49.148438 505.507812 49.425781 504.65625 50.050781 C 504.324219 50.34375 504.078125 50.695312 503.910156 51.105469 C 503.742188 51.511719 503.675781 51.9375 503.703125 52.378906 L 503.703125 53.421875 C 503.667969 53.863281 503.730469 54.289062 503.890625 54.699219 C 504.046875 55.109375 504.289062 55.460938 504.613281 55.761719 C 505.441406 56.378906 506.371094 56.648438 507.402344 56.570312 C 508.410156 56.644531 509.320312 56.375 510.125 55.761719 C 510.769531 55.109375 511.058594 54.324219 510.984375 53.410156 Z M 510.984375 52.378906"/><path fill="#002E6D" d="M 507.402344 57.285156 C 506.199219 57.359375 505.117188 57.027344 504.164062 56.289062 C 503.765625 55.925781 503.464844 55.492188 503.261719 54.992188 C 503.058594 54.488281 502.972656 53.96875 503.003906 53.429688 L 503.003906 52.386719 C 502.976562 51.84375 503.070312 51.320312 503.28125 50.820312 C 503.492188 50.316406 503.804688 49.886719 504.210938 49.527344 C 505.191406 48.796875 506.292969 48.464844 507.515625 48.53125 C 510.289062 48.53125 511.699219 49.835938 511.699219 52.410156 L 511.699219 53.453125 C 511.730469 53.984375 511.652344 54.5 511.460938 55 C 511.269531 55.5 510.984375 55.9375 510.605469 56.3125 C 509.660156 57.046875 508.59375 57.371094 507.402344 57.285156 Z M 507.515625 49.921875 C 506.640625 49.855469 505.84375 50.078125 505.128906 50.585938 C 504.59375 51.058594 504.355469 51.652344 504.414062 52.367188 L 504.414062 53.410156 C 504.347656 54.113281 504.566406 54.714844 505.070312 55.210938 C 505.761719 55.707031 506.53125 55.921875 507.378906 55.855469 C 508.207031 55.925781 508.953125 55.71875 509.625 55.234375 C 510.105469 54.71875 510.3125 54.109375 510.246094 53.410156 L 510.246094 52.367188 C 510.269531 50.851562 509.8125 49.933594 507.515625 49.933594 Z M 507.515625 49.921875"/><path fill="#002E6D" d="M 567.332031 76.261719 C 565.269531 72.800781 562.46875 70.113281 558.925781 68.195312 C 555.449219 66.332031 551.742188 65.410156 547.800781 65.429688 C 545.804688 65.433594 543.847656 65.707031 541.925781 66.25 C 540.007812 66.792969 538.195312 67.589844 536.496094 68.632812 C 534.671875 69.757812 533.035156 71.109375 531.585938 72.6875 C 530.136719 74.269531 528.929688 76.015625 527.964844 77.925781 C 525.691406 82.445312 524.613281 87.230469 524.726562 92.285156 C 524.675781 94.671875 524.929688 97.027344 525.488281 99.347656 C 526.042969 101.671875 526.882812 103.882812 528.007812 105.992188 C 529.058594 107.910156 530.355469 109.648438 531.898438 111.199219 C 533.445312 112.753906 535.171875 114.058594 537.089844 115.121094 C 539.171875 116.238281 541.363281 117.074219 543.664062 117.625 C 545.964844 118.175781 548.296875 118.425781 550.660156 118.375 C 554.222656 118.378906 557.582031 117.558594 560.742188 115.914062 C 563.839844 114.359375 566.496094 112.25 568.714844 109.582031 C 569.371094 108.921875 569.429688 108.527344 569.429688 108.292969 C 569.421875 107.9375 569.285156 107.648438 569.011719 107.421875 C 568.585938 106.984375 568.035156 106.707031 566.976562 107.515625 C 565.140625 109.882812 562.890625 111.75 560.226562 113.113281 C 557.1875 114.667969 553.964844 115.421875 550.550781 115.371094 C 548.449219 115.417969 546.378906 115.183594 544.339844 114.660156 C 542.304688 114.136719 540.375 113.34375 538.554688 112.289062 C 536.875 111.28125 535.367188 110.0625 534.027344 108.632812 C 532.691406 107.199219 531.578125 105.613281 530.6875 103.867188 C 528.808594 100.121094 527.898438 96.148438 527.964844 91.957031 L 527.964844 90.523438 L 568.96875 90.523438 C 569.445312 90.535156 569.847656 90.367188 570.179688 90.03125 C 570.523438 89.738281 570.6875 89.367188 570.679688 88.917969 C 570.703125 86.695312 570.429688 84.511719 569.863281 82.363281 C 569.296875 80.214844 568.453125 78.179688 567.332031 76.261719 Z M 528.199219 87.699219 L 528.515625 86.011719 C 529.546875 80.457031 531.953125 76.125 535.664062 73.144531 C 537.367188 71.707031 539.261719 70.597656 541.347656 69.824219 C 543.4375 69.050781 545.59375 68.65625 547.820312 68.640625 C 550.875 68.644531 553.78125 69.300781 556.542969 70.605469 C 559.394531 71.929688 561.757812 73.855469 563.628906 76.382812 C 565.582031 79.042969 566.71875 82.015625 567.039062 85.296875 L 567.039062 87.722656 Z M 528.199219 87.699219"/><path fill="#002E6D" d="M 588.863281 117.34375 C 589.09375 117.359375 589.316406 117.328125 589.53125 117.246094 C 589.75 117.164062 589.941406 117.039062 590.101562 116.878906 C 590.265625 116.714844 590.390625 116.523438 590.472656 116.308594 C 590.550781 116.089844 590.585938 115.867188 590.570312 115.636719 L 590.570312 44.414062 C 590.570312 44.1875 590.527344 43.96875 590.441406 43.761719 C 590.355469 43.550781 590.230469 43.367188 590.070312 43.207031 C 589.910156 43.046875 589.726562 42.921875 589.515625 42.835938 C 589.308594 42.75 589.089844 42.707031 588.863281 42.707031 C 588.636719 42.707031 588.417969 42.75 588.207031 42.835938 C 588 42.921875 587.8125 43.046875 587.652344 43.207031 C 587.492188 43.367188 587.371094 43.550781 587.285156 43.761719 C 587.195312 43.96875 587.152344 44.1875 587.152344 44.414062 L 587.152344 115.613281 C 587.128906 116.097656 587.285156 116.507812 587.625 116.851562 C 587.964844 117.203125 588.375 117.367188 588.863281 117.34375 Z M 588.863281 117.34375"/><path fill="#002E6D" d="M 310.351562 209.753906 L 348.785156 209.753906 C 349.273438 209.78125 349.695312 209.632812 350.058594 209.300781 C 350.382812 208.984375 350.527344 208.597656 350.492188 208.144531 C 350.496094 207.671875 350.332031 207.265625 350 206.929688 C 349.671875 206.574219 349.265625 206.410156 348.785156 206.433594 L 312.375 206.433594 L 312.375 175.097656 L 344.074219 175.097656 C 344.554688 175.125 344.976562 174.976562 345.339844 174.652344 C 345.667969 174.332031 345.8125 173.945312 345.78125 173.488281 C 345.792969 173.257812 345.757812 173.035156 345.675781 172.820312 C 345.59375 172.605469 345.472656 172.414062 345.308594 172.25 C 345.144531 172.089844 344.957031 171.964844 344.742188 171.882812 C 344.527344 171.800781 344.304688 171.765625 344.074219 171.777344 L 312.375 171.777344 L 312.375 142.636719 L 348.785156 142.636719 C 349.273438 142.664062 349.695312 142.515625 350.058594 142.183594 C 350.382812 141.867188 350.527344 141.480469 350.492188 141.027344 C 350.507812 140.796875 350.476562 140.570312 350.394531 140.355469 C 350.3125 140.140625 350.1875 139.949219 350.027344 139.785156 C 349.863281 139.621094 349.671875 139.5 349.457031 139.417969 C 349.238281 139.335938 349.015625 139.300781 348.785156 139.316406 L 310.351562 139.316406 C 310.125 139.304688 309.902344 139.339844 309.6875 139.425781 C 309.472656 139.507812 309.28125 139.628906 309.121094 139.792969 C 308.957031 139.957031 308.835938 140.144531 308.75 140.359375 C 308.667969 140.574219 308.632812 140.796875 308.644531 141.027344 L 308.644531 208.042969 C 308.632812 208.273438 308.667969 208.496094 308.75 208.710938 C 308.832031 208.925781 308.953125 209.117188 309.117188 209.28125 C 309.28125 209.441406 309.46875 209.566406 309.683594 209.648438 C 309.898438 209.730469 310.121094 209.765625 310.351562 209.753906 Z M 310.351562 209.753906"/><path fill="#002E6D" d="M 399.914062 197.363281 C 399.914062 194.335938 399.25 191.914062 397.941406 190.152344 C 396.550781 188.273438 394.792969 186.84375 392.671875 185.863281 C 389.851562 184.609375 386.933594 183.628906 383.925781 182.925781 C 379.144531 181.710938 375.433594 180.316406 372.902344 178.777344 C 372.234375 178.398438 371.625 177.941406 371.074219 177.402344 C 370.523438 176.863281 370.050781 176.265625 369.65625 175.605469 C 369.261719 174.945312 368.960938 174.246094 368.746094 173.503906 C 368.535156 172.765625 368.421875 172.011719 368.40625 171.242188 C 368.40625 167.609375 369.796875 164.871094 372.550781 163.0625 C 373.929688 162.195312 375.402344 161.546875 376.972656 161.113281 C 378.542969 160.679688 380.140625 160.484375 381.769531 160.523438 C 384.546875 160.507812 387.21875 161.039062 389.78125 162.117188 C 392.296875 163.183594 394.453125 164.734375 396.261719 166.78125 C 396.484375 167.011719 396.753906 167.132812 397.078125 167.136719 C 397.433594 167.164062 397.753906 167.070312 398.042969 166.851562 C 398.394531 166.566406 398.578125 166.191406 398.585938 165.738281 C 398.625 165.34375 398.496094 165.023438 398.191406 164.773438 L 398.035156 164.628906 C 396.050781 162.292969 393.628906 160.578125 390.761719 159.488281 C 388.003906 158.414062 385.144531 157.867188 382.183594 157.851562 C 379.128906 157.800781 376.203125 158.386719 373.402344 159.609375 C 370.976562 160.671875 368.984375 162.273438 367.433594 164.421875 C 365.976562 166.480469 365.261719 168.769531 365.285156 171.292969 C 365.285156 175.375 366.71875 178.371094 369.578125 180.4375 C 372.695312 182.660156 377.113281 184.503906 382.703125 185.921875 C 386.261719 186.714844 389.613281 188.035156 392.757812 189.875 C 395.488281 191.605469 396.875 194.230469 396.875 197.675781 C 396.90625 198.484375 396.828125 199.28125 396.644531 200.066406 C 396.457031 200.851562 396.171875 201.597656 395.789062 202.308594 C 395.402344 203.019531 394.929688 203.664062 394.371094 204.246094 C 393.8125 204.828125 393.1875 205.328125 392.492188 205.742188 C 391.066406 206.617188 389.542969 207.273438 387.921875 207.710938 C 386.304688 208.152344 384.660156 208.351562 382.984375 208.316406 C 381.285156 208.355469 379.601562 208.195312 377.941406 207.828125 C 376.28125 207.460938 374.6875 206.902344 373.164062 206.148438 C 371.640625 205.394531 370.226562 204.472656 368.925781 203.375 C 367.625 202.28125 366.472656 201.046875 365.472656 199.671875 C 365.140625 199.3125 364.730469 199.121094 364.242188 199.105469 C 363.996094 199.074219 363.773438 199.144531 363.585938 199.304688 L 363.25 199.5625 C 362.640625 199.886719 362.640625 200.207031 362.640625 200.398438 C 362.707031 200.945312 362.898438 201.4375 363.222656 201.878906 C 367.933594 207.800781 374.367188 210.796875 382.355469 210.796875 C 387.394531 210.796875 391.648438 209.539062 395.011719 207.050781 C 395.789062 206.511719 396.492188 205.886719 397.117188 205.171875 C 397.742188 204.457031 398.265625 203.675781 398.695312 202.828125 C 399.125 201.984375 399.441406 201.097656 399.648438 200.171875 C 399.855469 199.246094 399.941406 198.308594 399.914062 197.363281 Z M 399.914062 197.363281"/><path fill="#002E6D" d="M 456.429688 230.222656 C 456.675781 230.480469 456.972656 230.644531 457.320312 230.714844 C 457.667969 230.785156 458.003906 230.753906 458.332031 230.617188 C 458.660156 230.476562 458.921875 230.257812 459.113281 229.960938 C 459.304688 229.660156 459.394531 229.335938 459.382812 228.980469 L 459.382812 160.71875 C 459.402344 160.203125 459.234375 159.761719 458.882812 159.386719 C 458.71875 159.230469 458.53125 159.109375 458.324219 159.023438 C 458.113281 158.941406 457.894531 158.898438 457.667969 158.898438 C 457.441406 158.898438 457.226562 158.941406 457.015625 159.023438 C 456.804688 159.109375 456.621094 159.230469 456.457031 159.386719 C 456.105469 159.757812 455.941406 160.199219 455.964844 160.710938 L 455.964844 173.042969 L 453.28125 168.203125 C 451.484375 165.03125 449.003906 162.542969 445.839844 160.730469 C 442.542969 158.792969 438.988281 157.839844 435.164062 157.871094 C 433.101562 157.855469 431.082031 158.132812 429.101562 158.710938 C 427.121094 159.285156 425.261719 160.132812 423.53125 161.253906 C 421.742188 162.425781 420.140625 163.8125 418.722656 165.417969 C 417.304688 167.019531 416.125 168.78125 415.179688 170.699219 C 414.160156 172.828125 413.390625 175.046875 412.867188 177.347656 C 412.34375 179.652344 412.082031 181.984375 412.082031 184.34375 C 412.082031 186.707031 412.34375 189.039062 412.867188 191.339844 C 413.390625 193.644531 414.160156 195.859375 415.179688 197.992188 C 416.121094 199.910156 417.300781 201.675781 418.71875 203.277344 C 420.136719 204.878906 421.738281 206.265625 423.53125 207.4375 C 425.28125 208.5625 427.152344 209.410156 429.148438 209.988281 C 431.148438 210.5625 433.1875 210.839844 435.265625 210.816406 C 437.160156 210.832031 439.019531 210.574219 440.835938 210.042969 C 442.65625 209.511719 444.363281 208.730469 445.953125 207.699219 C 449.046875 205.777344 451.488281 203.226562 453.277344 200.050781 L 455.964844 195.101562 L 455.964844 229 C 455.945312 229.472656 456.097656 229.882812 456.429688 230.222656 Z M 453.777344 196.261719 C 452.96875 197.980469 451.945312 199.5625 450.703125 201 C 449.460938 202.441406 448.046875 203.683594 446.460938 204.734375 C 444.890625 205.75 443.203125 206.519531 441.402344 207.042969 C 439.605469 207.5625 437.765625 207.8125 435.894531 207.792969 C 434.015625 207.816406 432.175781 207.5625 430.371094 207.03125 C 428.570312 206.5 426.886719 205.714844 425.320312 204.675781 C 422.105469 202.527344 419.671875 199.707031 418.019531 196.210938 C 417.160156 194.347656 416.507812 192.414062 416.070312 190.410156 C 415.628906 188.402344 415.410156 186.375 415.410156 184.324219 C 415.410156 182.269531 415.628906 180.242188 416.070312 178.238281 C 416.507812 176.234375 417.160156 174.300781 418.019531 172.4375 C 419.675781 168.945312 422.109375 166.121094 425.320312 163.96875 C 426.101562 163.464844 426.917969 163.015625 427.769531 162.628906 C 428.617188 162.238281 429.488281 161.914062 430.382812 161.648438 C 431.277344 161.382812 432.1875 161.1875 433.113281 161.054688 C 434.035156 160.917969 434.964844 160.851562 435.898438 160.851562 C 436.832031 160.851562 437.757812 160.917969 438.683594 161.054688 C 439.605469 161.1875 440.515625 161.382812 441.410156 161.648438 C 442.308594 161.914062 443.179688 162.238281 444.027344 162.628906 C 444.875 163.015625 445.691406 163.464844 446.476562 163.96875 C 449.679688 166.125 452.109375 168.949219 453.769531 172.4375 C 455.566406 176.175781 456.4375 180.121094 456.386719 184.269531 C 456.441406 188.46875 455.570312 192.464844 453.777344 196.261719 Z M 453.777344 196.261719"/><path fill="#002E6D" d="M 518.957031 161.132812 C 518.972656 160.902344 518.9375 160.675781 518.855469 160.460938 C 518.773438 160.246094 518.652344 160.054688 518.488281 159.890625 C 518.324219 159.726562 518.132812 159.605469 517.917969 159.523438 C 517.703125 159.441406 517.476562 159.410156 517.246094 159.421875 C 517.015625 159.410156 516.792969 159.445312 516.578125 159.527344 C 516.363281 159.609375 516.175781 159.734375 516.011719 159.894531 C 515.847656 160.058594 515.726562 160.25 515.644531 160.464844 C 515.5625 160.679688 515.527344 160.902344 515.539062 161.132812 L 515.539062 190.660156 C 515.539062 196.058594 514.035156 200.257812 511.078125 203.144531 C 508.117188 206.035156 503.960938 207.480469 498.714844 207.480469 C 493.464844 207.480469 489.417969 206.046875 486.507812 203.144531 C 483.597656 200.242188 482.105469 196.058594 482.105469 190.660156 L 482.105469 161.132812 C 482.128906 160.648438 481.972656 160.238281 481.632812 159.894531 C 481.386719 159.636719 481.09375 159.472656 480.746094 159.402344 C 480.398438 159.328125 480.058594 159.359375 479.734375 159.496094 C 479.40625 159.636719 479.148438 159.851562 478.957031 160.152344 C 478.765625 160.449219 478.675781 160.777344 478.6875 161.132812 L 478.6875 190.660156 C 478.6875 197.097656 480.460938 202.023438 483.949219 205.390625 C 487.4375 208.757812 492.429688 210.480469 498.714844 210.480469 C 505 210.480469 510.097656 208.765625 513.644531 205.382812 C 517.191406 202 518.957031 197.0625 518.957031 190.660156 Z M 518.957031 161.132812"/><path fill="#002E6D" d="M 542.621094 144.800781 C 542.621094 143.292969 542.15625 142.355469 539.863281 142.355469 C 538.988281 142.292969 538.191406 142.515625 537.476562 143.019531 C 536.941406 143.496094 536.703125 144.089844 536.757812 144.800781 L 536.757812 145.84375 C 536.691406 146.550781 536.910156 147.148438 537.417969 147.640625 C 538.105469 148.144531 538.875 148.359375 539.726562 148.289062 C 540.550781 148.363281 541.296875 148.15625 541.964844 147.667969 C 542.449219 147.15625 542.660156 146.546875 542.59375 145.84375 Z M 542.621094 144.800781"/><path fill="#002E6D" d="M 539.753906 209.753906 C 539.988281 209.765625 540.210938 209.734375 540.425781 209.652344 C 540.644531 209.570312 540.832031 209.449219 540.996094 209.285156 C 541.160156 209.121094 541.28125 208.929688 541.363281 208.714844 C 541.445312 208.5 541.480469 208.273438 541.464844 208.042969 L 541.464844 159.875 C 541.476562 159.644531 541.441406 159.421875 541.359375 159.207031 C 541.277344 158.988281 541.15625 158.800781 540.992188 158.636719 C 540.828125 158.476562 540.640625 158.351562 540.425781 158.269531 C 540.207031 158.1875 539.984375 158.152344 539.753906 158.164062 C 539.527344 158.152344 539.304688 158.1875 539.089844 158.273438 C 538.875 158.355469 538.683594 158.476562 538.523438 158.640625 C 538.359375 158.804688 538.238281 158.992188 538.152344 159.207031 C 538.070312 159.421875 538.035156 159.644531 538.046875 159.875 L 538.046875 208.042969 C 538.035156 208.273438 538.070312 208.496094 538.152344 208.710938 C 538.234375 208.925781 538.355469 209.117188 538.519531 209.28125 C 538.683594 209.441406 538.871094 209.566406 539.085938 209.648438 C 539.300781 209.730469 539.523438 209.765625 539.753906 209.753906 Z M 539.753906 209.753906"/><path fill="#002E6D" d="M 578.667969 209.757812 C 579.011719 209.769531 579.316406 209.664062 579.589844 209.453125 C 579.917969 209.21875 580.171875 208.921875 580.355469 208.558594 L 600.859375 160.429688 C 601.050781 160.058594 601.148438 159.664062 601.152344 159.246094 C 601.160156 158.917969 601.027344 158.664062 600.753906 158.488281 C 600.433594 158.21875 600.0625 158.074219 599.644531 158.058594 C 599.285156 157.980469 598.957031 158.046875 598.65625 158.257812 C 598.335938 158.503906 598.097656 158.816406 597.941406 159.195312 L 578.722656 204.710938 L 559.582031 159.171875 C 559.429688 158.800781 559.191406 158.492188 558.867188 158.25 C 558.609375 158.050781 558.316406 157.953125 557.988281 157.957031 C 557.46875 157.902344 557.011719 158.050781 556.621094 158.402344 C 556.304688 158.722656 556.15625 159.109375 556.171875 159.558594 C 556.175781 159.679688 556.199219 159.796875 556.242188 159.910156 C 556.339844 160.152344 556.410156 160.402344 556.457031 160.660156 L 576.992188 208.628906 C 577.128906 209.015625 577.367188 209.324219 577.707031 209.550781 C 578.003906 209.730469 578.324219 209.796875 578.667969 209.757812 Z M 578.667969 209.757812"/><path fill="#002E6D" d="M 654.542969 168.683594 C 652.484375 165.222656 649.683594 162.53125 646.140625 160.617188 C 642.671875 158.757812 638.96875 157.832031 635.03125 157.851562 C 633.035156 157.855469 631.074219 158.128906 629.15625 158.671875 C 627.234375 159.214844 625.421875 160.003906 623.71875 161.046875 C 621.898438 162.175781 620.265625 163.527344 618.816406 165.105469 C 617.371094 166.683594 616.164062 168.429688 615.195312 170.339844 C 612.921875 174.859375 611.84375 179.644531 611.957031 184.699219 C 611.90625 187.085938 612.160156 189.4375 612.714844 191.757812 C 613.273438 194.082031 614.113281 196.292969 615.238281 198.398438 C 616.285156 200.316406 617.582031 202.054688 619.121094 203.605469 C 620.664062 205.15625 622.390625 206.460938 624.304688 207.523438 C 626.390625 208.648438 628.582031 209.488281 630.882812 210.042969 C 633.1875 210.597656 635.523438 210.847656 637.890625 210.796875 C 641.449219 210.796875 644.8125 209.976562 647.972656 208.335938 C 651.066406 206.777344 653.726562 204.664062 655.945312 202 C 656.601562 201.34375 656.660156 200.949219 656.660156 200.707031 C 656.648438 200.355469 656.507812 200.066406 656.246094 199.835938 C 655.816406 199.40625 655.265625 199.121094 654.199219 199.9375 C 652.367188 202.304688 650.121094 204.167969 647.457031 205.535156 C 644.421875 207.089844 641.195312 207.84375 637.78125 207.792969 C 635.671875 207.847656 633.59375 207.609375 631.546875 207.085938 C 629.5 206.5625 627.5625 205.773438 625.734375 204.710938 C 624.054688 203.703125 622.546875 202.484375 621.210938 201.054688 C 619.875 199.621094 618.761719 198.035156 617.871094 196.289062 C 615.988281 192.542969 615.078125 188.570312 615.144531 184.378906 L 615.144531 182.945312 L 656.152344 182.945312 C 656.625 182.953125 657.027344 182.789062 657.359375 182.453125 C 657.703125 182.160156 657.871094 181.789062 657.859375 181.339844 C 657.890625 179.117188 657.625 176.933594 657.0625 174.785156 C 656.5 172.636719 655.660156 170.601562 654.542969 168.683594 Z M 615.417969 180.121094 L 615.726562 178.433594 C 616.761719 172.878906 619.171875 168.546875 622.875 165.566406 C 624.574219 164.125 626.46875 163.019531 628.558594 162.242188 C 630.644531 161.46875 632.804688 161.070312 635.03125 161.054688 C 638.085938 161.0625 640.992188 161.71875 643.753906 163.027344 C 646.601562 164.351562 648.960938 166.277344 650.832031 168.804688 C 652.792969 171.460938 653.929688 174.433594 654.25 177.71875 L 654.25 180.144531 Z M 615.417969 180.121094"/><path fill="#002E6D" d="M 676.085938 209.753906 C 676.316406 209.765625 676.539062 209.726562 676.753906 209.644531 C 676.96875 209.5625 677.15625 209.441406 677.320312 209.277344 C 677.480469 209.113281 677.605469 208.925781 677.6875 208.710938 C 677.769531 208.496094 677.804688 208.273438 677.792969 208.042969 L 677.792969 136.84375 C 677.820312 136.363281 677.664062 135.949219 677.324219 135.605469 C 677.152344 135.457031 676.960938 135.339844 676.746094 135.257812 C 676.535156 135.179688 676.3125 135.136719 676.085938 135.136719 C 675.859375 135.136719 675.636719 135.179688 675.425781 135.257812 C 675.210938 135.339844 675.019531 135.457031 674.847656 135.605469 C 674.503906 135.949219 674.34375 136.363281 674.371094 136.851562 L 674.371094 208.050781 C 674.355469 208.28125 674.390625 208.503906 674.476562 208.722656 C 674.558594 208.9375 674.679688 209.125 674.84375 209.289062 C 675.007812 209.453125 675.199219 209.574219 675.414062 209.65625 C 675.632812 209.738281 675.855469 209.773438 676.085938 209.757812 Z M 676.085938 209.753906"/><path fill="#002E6D" d="M 425.796875 115.585938 L 404.269531 66.621094 C 404.140625 66.222656 403.902344 65.902344 403.554688 65.664062 C 403.214844 65.460938 402.847656 65.386719 402.453125 65.441406 C 402.078125 65.433594 401.742188 65.542969 401.445312 65.773438 C 401.097656 66.011719 400.824219 66.320312 400.628906 66.695312 L 379.179688 115.785156 C 378.972656 116.175781 378.863281 116.589844 378.859375 117.03125 C 378.847656 117.375 378.992188 117.636719 379.285156 117.816406 C 379.640625 118.109375 380.046875 118.261719 380.503906 118.273438 C 380.898438 118.355469 381.261719 118.28125 381.597656 118.054688 C 381.949219 117.800781 382.210938 117.476562 382.382812 117.082031 L 402.453125 70.785156 L 422.421875 117.101562 C 422.597656 117.492188 422.855469 117.8125 423.203125 118.058594 C 423.496094 118.273438 423.820312 118.378906 424.183594 118.375 C 424.75 118.433594 425.246094 118.277344 425.675781 117.902344 C 426.007812 117.574219 426.164062 117.175781 426.148438 116.707031 C 426.148438 116.585938 426.125 116.46875 426.085938 116.351562 C 425.960938 116.105469 425.863281 115.851562 425.796875 115.585938 Z M 425.796875 115.585938"/><path fill="#002E6D" d="M 73.90625 205.898438 L 208.886719 110.488281 L 168.933594 41.28125 Z M 204.03125 110.195312 L 83.488281 195.394531 L 168.953125 47.390625 L 204.875 109.59375 Z M 204.03125 110.195312"/><path fill="#002E6D" d="M 265.445312 208.617188 L 96.710938 208.617188 L 153.378906 169.96875 L 214.90625 169.96875 L 214.90625 166.207031 L 158.886719 166.207031 L 214.363281 128.371094 L 229.019531 153.753906 L 232.273438 151.871094 L 215.59375 122.988281 L 84.546875 212.363281 L 267.496094 212.175781 Z M 265.445312 208.617188"/></svg>