<svg id="Capa_1" data-name="Capa 1" xmlns="http://www.w3.org/2000/svg" viewBox="0 0 1133.86 1133.86"><defs><style>.cls-1{fill:#002e6d;}</style></defs><title>Logo</title><path class="cls-1" d="M547.41,526a66.4,66.4,0,0,0,4.6-25.3,65.58,65.58,0,0,0-4.61-24.94,40.26,40.26,0,0,0-13.66-17.74c-6-4.36-13.59-6.58-22.48-6.58H473.91a2.28,2.28,0,0,0-2.39,2.4v93.72a2.27,2.27,0,0,0,2.39,2.39h37.35c8.91,0,16.47-2.17,22.49-6.44A39.5,39.5,0,0,0,547.41,526Zm-9.79,6.7c-6.13,8.37-15.5,12.61-27.82,12.61H476.74V456.11H509.8c8.3,0,15.32,2.08,20.88,6.18a35.65,35.65,0,0,1,12.17,16.27,62.09,62.09,0,0,1,3.8,22.17c0,13.06-3,23.82-9,32Z"/><path class="cls-1" d="M720.42,504.53c0-8.28-2-15-5.94-19.91s-10-7.23-18.42-7.23a28.62,28.62,0,0,0-14.17,3.92,29.06,29.06,0,0,0-10.64,9.79L667.56,497V482a2.4,2.4,0,1,0-4.79,0v65.61a2.4,2.4,0,1,0,4.79,0V505a19.93,19.93,0,0,1,3.88-11.78,28.33,28.33,0,0,1,22.71-11.6c7.25,0,12.73,2.25,16.28,6.68s5.2,9.92,5.2,16.7v42.62A2.27,2.27,0,0,0,718,550a2.35,2.35,0,0,0,1.69-.69,2.18,2.18,0,0,0,.7-1.7Z"/><path class="cls-1" d="M749.5,550a2.27,2.27,0,0,0,2.4-2.39V480.23a2.27,2.27,0,0,0-2.4-2.4,2.28,2.28,0,0,0-2.39,2.4v67.36A2.27,2.27,0,0,0,749.5,550Z"/><path class="cls-1" d="M754.51,459.14c0-3.06-1.5-4.42-4.85-4.42a6.09,6.09,0,0,0-4,1.16,4,4,0,0,0-1.33,3.26v1.46a4,4,0,0,0,1.27,3.27h0A5.8,5.8,0,0,0,749.5,465a5.59,5.59,0,0,0,3.81-1.13,4.2,4.2,0,0,0,1.2-3.29Z"/><path class="cls-1" d="M749.5,466a6.74,6.74,0,0,1-4.53-1.39,5.05,5.05,0,0,1-1.62-4v-1.46a5,5,0,0,1,1.69-4,7.06,7.06,0,0,1,4.62-1.39c3.88,0,5.85,1.82,5.85,5.42v1.46a5.19,5.19,0,0,1-1.53,4A6.53,6.53,0,0,1,749.5,466Zm.16-10.3a5.12,5.12,0,0,0-3.34.93,3,3,0,0,0-1,2.49v1.46a3.12,3.12,0,0,0,.92,2.52,4.88,4.88,0,0,0,3.23.9,4.66,4.66,0,0,0,3.14-.87,3.3,3.3,0,0,0,.87-2.55v-1.46C753.51,457,752.87,455.72,749.66,455.72Z"/><path class="cls-1" d="M833.32,492.54a30.69,30.69,0,0,0-11.76-11.28A32.56,32.56,0,0,0,806,477.39a30.33,30.33,0,0,0-15.81,4.48,32.47,32.47,0,0,0-11.93,13,42.52,42.52,0,0,0-4.53,20.08,39,39,0,0,0,4.59,19.17,32.36,32.36,0,0,0,12.7,12.77A38.38,38.38,0,0,0,810,551.44a30.43,30.43,0,0,0,14.1-3.44,34.76,34.76,0,0,0,11.15-8.86c.92-.92,1-1.47,1-1.8a1.62,1.62,0,0,0-.58-1.22c-.6-.61-1.37-1-2.85.13a28.17,28.17,0,0,1-9.44,7.83,28.72,28.72,0,0,1-13.53,3.16,32,32,0,0,1-16.78-4.31,29.21,29.21,0,0,1-11-11.78,35.87,35.87,0,0,1-3.81-16.66v-2h57.35a2.32,2.32,0,0,0,1.69-.69,2,2,0,0,0,.7-1.56A34.43,34.43,0,0,0,833.32,492.54Zm-54.73,16,.44-2.36c1.44-7.77,4.81-13.83,10-18a26.63,26.63,0,0,1,17-6.3,28.64,28.64,0,0,1,12.2,2.75,25.91,25.91,0,0,1,9.91,8.08,25.18,25.18,0,0,1,4.77,12.47v3.39Z"/><path class="cls-1" d="M863.43,550a2.25,2.25,0,0,0,2.39-2.39V448a2.39,2.39,0,1,0-4.78,0v99.58a2.29,2.29,0,0,0,.66,1.73A2.26,2.26,0,0,0,863.43,550Z"/><path class="cls-1" d="M473.91,679.24h53.75a2.42,2.42,0,0,0,1.78-.63,2.06,2.06,0,0,0,.61-1.62,2.39,2.39,0,0,0-.69-1.7,2.17,2.17,0,0,0-1.7-.69H476.74V630.77h44.33a2.44,2.44,0,0,0,1.77-.62,2.07,2.07,0,0,0,.62-1.63,2.27,2.27,0,0,0-2.39-2.39H476.74V585.37h50.92a2.42,2.42,0,0,0,1.78-.63,2.06,2.06,0,0,0,.61-1.62,2.25,2.25,0,0,0-2.39-2.39H473.91a2.28,2.28,0,0,0-2.39,2.39v93.73a2.27,2.27,0,0,0,2.39,2.39Z"/><path class="cls-1" d="M599.17,661.91c0-4.23-.93-7.62-2.76-10.08a19.19,19.19,0,0,0-7.37-6,68.35,68.35,0,0,0-12.23-4.11c-6.69-1.7-11.88-3.65-15.42-5.8a12.42,12.42,0,0,1-6.29-10.54c0-5.08,1.95-8.91,5.8-11.44a23.12,23.12,0,0,1,12.89-3.55A28.51,28.51,0,0,1,585,612.62a25.18,25.18,0,0,1,9.06,6.52,1.63,1.63,0,0,0,1.14.5,2,2,0,0,0,1.35-.4,2.06,2.06,0,0,0,.76-1.56,1.54,1.54,0,0,0-.55-1.35l-.22-.2a25,25,0,0,0-10.17-7.19,33.67,33.67,0,0,0-12-2.29,29.46,29.46,0,0,0-12.28,2.46,20.39,20.39,0,0,0-8.35,6.73,16.35,16.35,0,0,0-3,9.61c0,5.71,2,9.9,6,12.79,4.36,3.11,10.54,5.69,18.36,7.67a49,49,0,0,1,14.06,5.53c3.82,2.42,5.76,6.09,5.76,10.91a12.61,12.61,0,0,1-6.13,11.28,24.43,24.43,0,0,1-13.3,3.6,29.41,29.41,0,0,1-24.49-12.09,2.45,2.45,0,0,0-1.72-.79,1.19,1.19,0,0,0-.92.28l-.47.36c-.85.45-.85.9-.85,1.17a4.42,4.42,0,0,0,.81,2.07c6.59,8.28,15.59,12.47,26.76,12.47,7.05,0,13-1.76,17.7-5.24A15.88,15.88,0,0,0,599.17,661.91Z"/><path class="cls-1" d="M678.21,707.87a2.4,2.4,0,0,0,4.13-1.74V610.66a2.55,2.55,0,0,0-.7-1.86,2.44,2.44,0,0,0-3.39,0,2.54,2.54,0,0,0-.69,1.85v17.25l-3.75-6.77a27.9,27.9,0,0,0-10.41-10.45,29,29,0,0,0-14.93-4,29.5,29.5,0,0,0-16.27,4.73,33.45,33.45,0,0,0-11.68,13.21,44.22,44.22,0,0,0,0,38.17A33.24,33.24,0,0,0,632.2,676a29.72,29.72,0,0,0,16.41,4.73,27.13,27.13,0,0,0,14.95-4.36,29.8,29.8,0,0,0,10.24-10.7l3.76-6.92v47.41A2.32,2.32,0,0,0,678.21,707.87Zm-3.71-47.5a28.88,28.88,0,0,1-10.23,11.85,26.65,26.65,0,0,1-14.78,4.28,26.2,26.2,0,0,1-14.79-4.36,29.3,29.3,0,0,1-10.21-11.84,39.69,39.69,0,0,1,0-33.25,29.43,29.43,0,0,1,10.21-11.84,27.28,27.28,0,0,1,29.59,0,29.57,29.57,0,0,1,10.2,11.84,37.16,37.16,0,0,1,3.66,16.55A38.09,38.09,0,0,1,674.5,660.37Z"/><path class="cls-1" d="M765.66,611.24a2.25,2.25,0,0,0-2.39-2.39,2.27,2.27,0,0,0-2.39,2.39v41.3c0,7.55-2.1,13.42-6.24,17.46s-9.95,6.06-17.29,6.06-13-2-17.07-6.06-6.16-9.91-6.16-17.46v-41.3a2.29,2.29,0,0,0-.66-1.73h0a2.39,2.39,0,0,0-4.12,1.73v41.3c0,9,2.48,15.89,7.36,20.6s11.86,7.12,20.65,7.12,15.92-2.4,20.88-7.13,7.43-11.64,7.43-20.59Z"/><path class="cls-1" d="M798.76,588.4c0-2.11-.65-3.42-3.86-3.42a5.16,5.16,0,0,0-3.34.93,3,3,0,0,0-1,2.49v1.46a3.07,3.07,0,0,0,.92,2.51,4.81,4.81,0,0,0,3.23.91,4.61,4.61,0,0,0,3.13-.87,3.27,3.27,0,0,0,.88-2.55Z"/><path class="cls-1" d="M794.75,679.24a2.25,2.25,0,0,0,2.39-2.39V609.48a2.27,2.27,0,0,0-2.39-2.39,2.28,2.28,0,0,0-2.39,2.39v67.37a2.27,2.27,0,0,0,2.39,2.39Z"/><path class="cls-1" d="M849.17,679.25a2,2,0,0,0,1.29-.43,3.36,3.36,0,0,0,1.07-1.25l28.68-67.31a3.73,3.73,0,0,0,.41-1.66,1.24,1.24,0,0,0-.56-1.06,2.57,2.57,0,0,0-1.55-.6,1.77,1.77,0,0,0-1.38.28,3.13,3.13,0,0,0-1,1.31l-26.88,63.66L822.48,608.5a3.09,3.09,0,0,0-1-1.29,2,2,0,0,0-1.23-.41,2.48,2.48,0,0,0-1.91.62,2.2,2.2,0,0,0-.63,1.62,1.48,1.48,0,0,0,.1.49,5.67,5.67,0,0,1,.3,1.05l28.72,67.09a2.57,2.57,0,0,0,1,1.29A2.14,2.14,0,0,0,849.17,679.25Z"/><path class="cls-1" d="M955.29,621.8a30.6,30.6,0,0,0-11.75-11.28A32.59,32.59,0,0,0,928,606.65a30.47,30.47,0,0,0-15.82,4.47,32.61,32.61,0,0,0-11.92,13,42.52,42.52,0,0,0-4.53,20.08,38.93,38.93,0,0,0,4.59,19.16A32.23,32.23,0,0,0,913,676.12,38.22,38.22,0,0,0,932,680.7a30.56,30.56,0,0,0,14.1-3.44,35,35,0,0,0,11.15-8.86c.92-.92,1-1.47,1-1.81a1.69,1.69,0,0,0-.58-1.22c-.6-.6-1.37-1-2.86.14a28.13,28.13,0,0,1-9.43,7.83,28.72,28.72,0,0,1-13.53,3.16A32,32,0,0,1,915,672.19a29.21,29.21,0,0,1-11-11.78,35.87,35.87,0,0,1-3.81-16.66v-2h57.35a2.33,2.33,0,0,0,1.69-.69,2,2,0,0,0,.7-1.56A34.29,34.29,0,0,0,955.29,621.8Zm-54.72,16,.43-2.36c1.45-7.77,4.82-13.83,10-18a26.64,26.64,0,0,1,17-6.31,28.65,28.65,0,0,1,12.2,2.76,25.88,25.88,0,0,1,9.9,8.08,25.1,25.1,0,0,1,4.78,12.47v3.39Z"/><path class="cls-1" d="M985.42,679.24a2.28,2.28,0,0,0,2.39-2.39V577.27a2.29,2.29,0,0,0-.66-1.73,2.61,2.61,0,0,0-3.46,0,2.3,2.3,0,0,0-.67,1.74v99.58a2.27,2.27,0,0,0,2.4,2.39Z"/><path class="cls-1" d="M635.37,547.54l-30.11-68.48a2.6,2.6,0,0,0-1-1.34,2.38,2.38,0,0,0-1.54-.31,2.25,2.25,0,0,0-1.41.46,3.59,3.59,0,0,0-1.14,1.29l-30,68.66a3.79,3.79,0,0,0-.45,1.74,1.24,1.24,0,0,0,.6,1.1,2.82,2.82,0,0,0,1.7.64,2,2,0,0,0,1.53-.31,3.23,3.23,0,0,0,1.1-1.36l28.07-64.75,27.93,64.78a3.32,3.32,0,0,0,1.09,1.34,2.28,2.28,0,0,0,1.37.44,2.76,2.76,0,0,0,2.09-.66,2.26,2.26,0,0,0,.66-1.67,1.56,1.56,0,0,0-.09-.5A5.1,5.1,0,0,1,635.37,547.54Z"/><path class="cls-1" d="M143.22,673.85,332,540.41l-55.88-96.79ZM325.21,540,156.62,659.16l119.53-207,50.24,87Z"/><polygon class="cls-1" points="411.1 677.65 175.11 677.65 254.37 623.6 340.42 623.6 340.42 618.34 262.07 618.34 339.66 565.42 360.16 600.92 364.71 598.29 341.38 557.89 158.1 682.89 413.97 682.63 411.1 677.65"/></svg>