<svg id="Capa_1" data-name="Capa 1" xmlns="http://www.w3.org/2000/svg" viewBox="0 0 1133.86 1133.86"><defs><style>.cls-1{fill:#002e6d;}</style></defs><title>Logo</title><path class="cls-1" d="M245.88,711.69a32,32,0,0,1,10.91,14.15,55.36,55.36,0,0,1,0,39.38,31.28,31.28,0,0,1-10.91,14q-7.31,5.17-18,5.18H199.48a3.25,3.25,0,0,1-3.34-3.34v-71.3a3.25,3.25,0,0,1,3.34-3.34h28.41Q238.59,706.4,245.88,711.69Zm.83,57.15q6.57-9,6.58-23.45a45.65,45.65,0,0,0-2.79-16.32,25.55,25.55,0,0,0-8.74-11.69q-6-4.41-15-4.4H203.15v64.83h23.62Q240.14,777.81,246.71,768.84Z"/><path class="cls-1" d="M383.67,732.19q4.84,6.07,4.85,16.1V781a3.11,3.11,0,0,1-1,2.39,3.31,3.31,0,0,1-5.67-2.39V748.62q0-7.23-3.62-11.75T367,732.36a20,20,0,0,0-16,8.18,13.65,13.65,0,0,0-2.67,8.08V781a3.25,3.25,0,0,1-3.34,3.34,3.25,3.25,0,0,1-3.35-3.34V731.13a3.25,3.25,0,0,1,3.35-3.34,3.25,3.25,0,0,1,3.34,3.34v6.13a23.65,23.65,0,0,1,8.63-8,23.24,23.24,0,0,1,11.53-3.17Q378.84,726.12,383.67,732.19Z"/><path class="cls-1" d="M405.67,717.93a3.8,3.8,0,0,1-1.23-3.06v-1.12a3.77,3.77,0,0,1,1.29-3.06,5.38,5.38,0,0,1,3.51-1.06c3,0,4.46,1.38,4.46,4.12v1.12a3.93,3.93,0,0,1-1.17,3.06,4.91,4.91,0,0,1-3.41,1.06A5.1,5.1,0,0,1,405.67,717.93Zm5.85,65.5a3.35,3.35,0,0,1-5.74-2.39V729.8a3.35,3.35,0,1,1,6.69,0V781A3.25,3.25,0,0,1,411.52,783.43Z"/><path class="cls-1" d="M477,754.92a3.26,3.26,0,0,1-2.33.94H432.52a25.75,25.75,0,0,0,2.73,12,20.58,20.58,0,0,0,7.8,8.35,22.63,22.63,0,0,0,12,3.07A20.3,20.3,0,0,0,464.6,777a19.86,19.86,0,0,0,6.8-5.68,3.79,3.79,0,0,1,2.34-1,2.76,2.76,0,0,1,2,.9,2.73,2.73,0,0,1,.89,2,3.3,3.3,0,0,1-1.11,2.34,28.1,28.1,0,0,1-9,7.13,24.66,24.66,0,0,1-11.42,2.78A30.44,30.44,0,0,1,440,781.82a25.94,25.94,0,0,1-10.25-10.31,30.92,30.92,0,0,1-3.68-15.31,33.79,33.79,0,0,1,3.61-16,26.26,26.26,0,0,1,9.64-10.47,24.53,24.53,0,0,1,12.82-3.62,26.24,26.24,0,0,1,12.53,3.12,24.64,24.64,0,0,1,9.52,9.13A27.63,27.63,0,0,1,478,752.63,3,3,0,0,1,477,754.92ZM440.15,737q-5.52,4.46-7.07,12.81h38V749a17.52,17.52,0,0,0-3.34-8.75,18.1,18.1,0,0,0-7-5.68,20.2,20.2,0,0,0-8.63-1.95A18.69,18.69,0,0,0,440.15,737Z"/><path class="cls-1" d="M498.19,783.43a3.51,3.51,0,0,1-4.8,0,3.28,3.28,0,0,1-.94-2.39V705.29a3.3,3.3,0,0,1,.94-2.4,3.53,3.53,0,0,1,4.8,0,3.3,3.3,0,0,1,.94,2.4V781A3.28,3.28,0,0,1,498.19,783.43Z"/><path class="cls-1" d="M596.11,778.81a3.35,3.35,0,0,1,.94,2.34,3.09,3.09,0,0,1-.94,2.34,3.39,3.39,0,0,1-2.4.89H552.83a3.18,3.18,0,0,1-2.39-1,3.22,3.22,0,0,1-1-2.39v-71.3a3.26,3.26,0,0,1,3.35-3.34h40.88a3.23,3.23,0,0,1,3.34,3.34,3.09,3.09,0,0,1-.94,2.34,3.36,3.36,0,0,1-2.4.9H556.5v28h32.2a3.23,3.23,0,0,1,3.34,3.34,3.09,3.09,0,0,1-.95,2.34,3.37,3.37,0,0,1-2.39.89H556.5v30.3h37.21A3.16,3.16,0,0,1,596.11,778.81Z"/><path class="cls-1" d="M607,772.91a2.43,2.43,0,0,1,1.44-2.23,2.38,2.38,0,0,1,1.78-.67,3.39,3.39,0,0,1,2.45,1.11,20.83,20.83,0,0,0,17.49,8.69,17,17,0,0,0,9.31-2.5,8.13,8.13,0,0,0,3.95-7.3,7.77,7.77,0,0,0-3.67-7,36.29,36.29,0,0,0-10.25-4q-9.26-2.34-14.48-6.07t-5.24-11a13.83,13.83,0,0,1,2.56-8.19,16.9,16.9,0,0,1,7-5.62,23.74,23.74,0,0,1,10-2,26.91,26.91,0,0,1,9.64,1.84,20.27,20.27,0,0,1,8.3,5.85,2.67,2.67,0,0,1,1,2.22,3.06,3.06,0,0,1-1.11,2.34,3,3,0,0,1-2,.67,2.73,2.73,0,0,1-2-.89,17.65,17.65,0,0,0-6.35-4.57A20.08,20.08,0,0,0,628.8,732a15.94,15.94,0,0,0-9,2.46,8.19,8.19,0,0,0-3.73,7.35,8,8,0,0,0,4.06,6.79,42.78,42.78,0,0,0,11.31,4.23,53.43,53.43,0,0,1,9.58,3.24,16,16,0,0,1,6.18,5,14,14,0,0,1,2.4,8.58,13.62,13.62,0,0,1-5.79,11.53q-5.79,4.29-14.37,4.28-13.61,0-21.61-10.13A4.9,4.9,0,0,1,607,772.91Z"/><path class="cls-1" d="M712,728.24a3.46,3.46,0,0,1,.94,2.45v72.63a3.39,3.39,0,0,1-5.74,2.39,3.24,3.24,0,0,1-.94-2.39V773.24a24.1,24.1,0,0,1-8.3,8.69,22,22,0,0,1-12.2,3.56,24,24,0,0,1-13.31-3.84A26.63,26.63,0,0,1,663,771a35.14,35.14,0,0,1,0-30.41A26.7,26.7,0,0,1,672.41,730a23.85,23.85,0,0,1,13.2-3.84,23.47,23.47,0,0,1,12.14,3.29,22.55,22.55,0,0,1,8.47,8.52v-7.24a3.41,3.41,0,0,1,.94-2.45,3.36,3.36,0,0,1,4.8,0Zm-15.16,48a20.37,20.37,0,0,0,7.24-8.41,27.29,27.29,0,0,0,2.63-12.09A26.71,26.71,0,0,0,704,743.83a20.82,20.82,0,0,0-7.24-8.41,19.24,19.24,0,0,0-20.82,0,20.74,20.74,0,0,0-7.24,8.41,28.58,28.58,0,0,0,0,23.95,20.68,20.68,0,0,0,7.24,8.41,18.34,18.34,0,0,0,10.41,3.07A18.71,18.71,0,0,0,696.8,776.25Z"/><path class="cls-1" d="M775.34,728.74a3.24,3.24,0,0,1,.94,2.39v31.42q0,10.92-6.12,16.76t-16.93,5.85q-10.69,0-16.77-5.85t-6.06-16.76V731.13a3.34,3.34,0,1,1,6.68,0v31.42q0,8,4.23,12.2t11.92,4.17q7.8,0,12.09-4.17t4.28-12.2V731.13a3.39,3.39,0,0,1,5.74-2.39Z"/><path class="cls-1" d="M793.44,717.93a3.8,3.8,0,0,1-1.23-3.06v-1.12a3.77,3.77,0,0,1,1.28-3.06,5.41,5.41,0,0,1,3.52-1.06c3,0,4.45,1.38,4.45,4.12v1.12a3.9,3.9,0,0,1-1.17,3.06,4.9,4.9,0,0,1-3.4,1.06A5.07,5.07,0,0,1,793.44,717.93Zm5.85,65.5a3.23,3.23,0,0,1-2.4,1,3.19,3.19,0,0,1-2.39-1,3.25,3.25,0,0,1-1-2.39V729.8a3.34,3.34,0,1,1,6.68,0V781A3.28,3.28,0,0,1,799.29,783.43Z"/><path class="cls-1" d="M862.73,727.12a2.45,2.45,0,0,1,1,2,4.11,4.11,0,0,1-.45,1.89l-21.83,51.24a4.13,4.13,0,0,1-1.28,1.51,2.85,2.85,0,0,1-1.73.61,3.11,3.11,0,0,1-2-.44,3.34,3.34,0,0,1-1.34-1.68L813.16,731a2.22,2.22,0,0,0-.17-.67,2.51,2.51,0,0,1-.17-.89,3.22,3.22,0,0,1,.89-2.28,3.36,3.36,0,0,1,2.56-.95,3.06,3.06,0,0,1,1.84.61,3.88,3.88,0,0,1,1.28,1.62l18.94,45.12,19-45.12a4,4,0,0,1,1.28-1.62,2.78,2.78,0,0,1,2-.5A3.41,3.41,0,0,1,862.73,727.12Z"/><path class="cls-1" d="M923.1,754.92a3.26,3.26,0,0,1-2.33.94H878.66a25.63,25.63,0,0,0,2.73,12,20.58,20.58,0,0,0,7.8,8.35,22.63,22.63,0,0,0,12,3.07,20.3,20.3,0,0,0,9.58-2.23,19.82,19.82,0,0,0,6.79-5.68,3.79,3.79,0,0,1,2.35-1,2.76,2.76,0,0,1,2,.9,2.73,2.73,0,0,1,.89,2,3.3,3.3,0,0,1-1.11,2.34,28.1,28.1,0,0,1-9,7.13,24.66,24.66,0,0,1-11.42,2.78,30.51,30.51,0,0,1-15.15-3.67,26,26,0,0,1-10.24-10.31,30.92,30.92,0,0,1-3.69-15.31,33.8,33.8,0,0,1,3.62-16,26.19,26.19,0,0,1,9.64-10.47,24.5,24.5,0,0,1,12.82-3.62,26.24,26.24,0,0,1,12.53,3.12,24.64,24.64,0,0,1,9.52,9.13,27.63,27.63,0,0,1,3.79,14.26A3,3,0,0,1,923.1,754.92ZM886.29,737q-5.52,4.46-7.07,12.81h38V749a17.52,17.52,0,0,0-3.34-8.75,18.17,18.17,0,0,0-7-5.68,20.23,20.23,0,0,0-8.63-1.95A18.69,18.69,0,0,0,886.29,737Z"/><path class="cls-1" d="M944.33,783.43a3.35,3.35,0,0,1-5.74-2.39V705.29a3.4,3.4,0,0,1,5.74-2.4,3.27,3.27,0,0,1,.95,2.4V781A3.25,3.25,0,0,1,944.33,783.43Z"/><path class="cls-1" d="M271.83,784.59a2.48,2.48,0,0,1-1.05-2.05,4.17,4.17,0,0,1,.47-1.93l22.88-52.31a4.29,4.29,0,0,1,1.34-1.54,3.12,3.12,0,0,1,1.82-.62,3.3,3.3,0,0,1,2.1.45,3.47,3.47,0,0,1,1.4,1.71l23,52.31a1.89,1.89,0,0,0,.18.68,2.62,2.62,0,0,1,.17.91,3.22,3.22,0,0,1-.94,2.33,3.56,3.56,0,0,1-2.68,1,3.24,3.24,0,0,1-1.93-.62,4.1,4.1,0,0,1-1.34-1.65L297.4,737.17l-20,46.05a4,4,0,0,1-1.34,1.65,2.86,2.86,0,0,1-2,.51A3.61,3.61,0,0,1,271.83,784.59Z"/><path class="cls-1" d="M392.87,642.67l254-179.48L571.66,333Zm244.79-180L410.9,622.92,571.66,344.46l67.58,117.06Z"/><polygon class="cls-1" points="753.18 647.79 435.76 647.79 542.37 575.08 658.11 575.08 658.11 568.01 552.73 568.01 657.09 496.83 684.66 544.58 690.78 541.05 659.4 486.7 412.89 654.84 757.04 654.48 753.18 647.79"/></svg>